<svg id="レイヤー_1" data-name="レイヤー 1" xmlns="http://www.w3.org/2000/svg" viewBox="0 0 463.03 134.59"><defs><style>.cls-1{fill:#fff;}.cls-1,.cls-2{stroke:#5578ff;stroke-linecap:round;stroke-linejoin:round;stroke-width:7px;}.cls-2{fill:none;}.cls-3{fill:#606c76;}</style></defs><title>logo</title><path class="cls-1" d="M4.92,101.65,45.51,34.28l44.81.22,36.65,82H13.31A9.79,9.79,0,0,1,4.92,101.65Z" transform="translate(0 -7.38)"/><line class="cls-2" x1="34.32" y1="66.13" x2="93.85" y2="65.76"/><line class="cls-2" x1="28.32" y1="80.13" x2="98.42" y2="80.1"/><line class="cls-2" x1="23.32" y1="94.13" x2="102.98" y2="94.44"/><path class="cls-1" d="M90.32,34.5l53.41,99.56a3,3,0,0,1-4.74,3.47L45.77,34.5Z" transform="translate(0 -7.38)"/><path class="cls-3" d="M188.14,54.12h.44a28.84,28.84,0,0,1,2.94-6.17A25.79,25.79,0,0,1,197,41.7,29,29,0,0,1,216.07,35a33,33,0,0,1,15.07,3.23,30.58,30.58,0,0,1,10.58,8.67A37.3,37.3,0,0,1,248,59.56,54.9,54.9,0,0,1,250,74.7,57.59,57.59,0,0,1,248,90.58,34.84,34.84,0,0,1,241.7,103a28.77,28.77,0,0,1-10.61,8.16A36,36,0,0,1,216,114.1a33.87,33.87,0,0,1-16.8-4.12q-7.37-4.11-10.76-13.38h-.29v42.78H182.7V36.77h5.44ZM216,109.25a27.33,27.33,0,0,0,12.75-2.79,25.24,25.24,0,0,0,8.84-7.5,32.72,32.72,0,0,0,5.16-11,51.86,51.86,0,0,0,.07-26,35.07,35.07,0,0,0-5-11.17A25.77,25.77,0,0,0,229,42.88a29.58,29.58,0,0,0-25.87-.07,24.88,24.88,0,0,0-8.62,7.79,32.81,32.81,0,0,0-4.79,11.1,56.48,56.48,0,0,0-1.47,13,62.49,62.49,0,0,0,1.33,13,31.57,31.57,0,0,0,4.5,11,23,23,0,0,0,8.55,7.64A28.13,28.13,0,0,0,216,109.25Z" transform="translate(0 -7.38)"/><path class="cls-3" d="M321.47,112.33h-5.59V96.16h-.29a24.29,24.29,0,0,1-4.19,7.57,27.84,27.84,0,0,1-14.19,9.19,32.51,32.51,0,0,1-8.67,1.18,34.34,34.34,0,0,1-11.25-1.62,22,22,0,0,1-7.57-4.26,20.55,20.55,0,0,1-4.63-6,27.42,27.42,0,0,1-2.43-6.69,39.09,39.09,0,0,1-.88-6.54q-.15-3.16-.15-5.51V36.77h5.59V84.55a70,70,0,0,0,.44,7.13,21.37,21.37,0,0,0,2.57,8.08,18.81,18.81,0,0,0,6.39,6.69q4.26,2.79,12.05,2.79a26.75,26.75,0,0,0,11.39-2.35,24.63,24.63,0,0,0,8.6-6.54,28.82,28.82,0,0,0,5.37-10,42,42,0,0,0,1.84-12.72V36.77h5.59Z" transform="translate(0 -7.38)"/><path class="cls-3" d="M343.23,54.12h.44a28.86,28.86,0,0,1,2.94-6.17A25.78,25.78,0,0,1,352,41.7,29,29,0,0,1,371.16,35a33,33,0,0,1,15.07,3.23,30.59,30.59,0,0,1,10.58,8.67,37.31,37.31,0,0,1,6.25,12.64,54.9,54.9,0,0,1,2.06,15.14,57.61,57.61,0,0,1-2.06,15.88A34.84,34.84,0,0,1,396.79,103a28.77,28.77,0,0,1-10.61,8.16,36,36,0,0,1-15.1,2.94,33.86,33.86,0,0,1-16.8-4.12q-7.37-4.11-10.76-13.38h-.29v42.78h-5.44V36.77h5.44Zm27.86,55.13a27.32,27.32,0,0,0,12.75-2.79,25.24,25.24,0,0,0,8.84-7.5,32.71,32.71,0,0,0,5.16-11,51.86,51.86,0,0,0,.07-26,35.09,35.09,0,0,0-5-11.17,25.77,25.77,0,0,0-8.77-7.94,29.58,29.58,0,0,0-25.87-.07,24.89,24.89,0,0,0-8.62,7.79,32.82,32.82,0,0,0-4.79,11.1,56.51,56.51,0,0,0-1.47,13,62.45,62.45,0,0,0,1.33,13,31.56,31.56,0,0,0,4.49,11,23,23,0,0,0,8.55,7.64A28.14,28.14,0,0,0,371.08,109.25Z" transform="translate(0 -7.38)"/><path class="cls-3" d="M422.31,53.53h.44a18.39,18.39,0,0,1,3.75-6.91A26.37,26.37,0,0,1,433.12,41a32.7,32.7,0,0,1,8.67-3.6,35.16,35.16,0,0,1,9.92-1.1v5.59a26.49,26.49,0,0,0-10.07.88,24.45,24.45,0,0,0-10.8,6.47,52.14,52.14,0,0,0-3.6,4.26,20.66,20.66,0,0,0-2.57,4.56A28.75,28.75,0,0,0,423,63.68a48.52,48.52,0,0,0-.73,7.35v41.31h-5.59V36.77h5.59Z" transform="translate(0 -7.38)"/><path class="cls-3" d="M463,7.38v105h-5.59V7.38Z" transform="translate(0 -7.38)"/></svg>